<?xml version="1.0" encoding="UTF-8"?>
<svg version="1.1" xmlns="http://www.w3.org/2000/svg" width="256" height="256">
<path d="M0 0 C6.91386762 1.04942633 13.43958883 4.79094765 18 10.125 C22.35450663 16.38460328 22.91807323 21.40676933 22 29 C18.05783013 40.4393322 8.23217135 46.82216208 -2.06005859 52.06103516 C-13.22369868 57.46442803 -27.47042471 63 -40 63 C-40 68.28 -40 73.56 -40 79 C-44.30269642 77.56576786 -47.57062871 76.29972459 -51.44921875 74.171875 C-52.46306641 73.61886719 -53.47691406 73.06585938 -54.52148438 72.49609375 C-55.56626953 71.91988281 -56.61105469 71.34367187 -57.6875 70.75 C-58.71294922 70.18925781 -59.73839844 69.62851563 -60.79492188 69.05078125 C-62.84405509 67.92977723 -64.89208474 66.80675341 -66.93896484 65.68164062 C-71.61995088 63.11004772 -76.31009557 60.55528134 -81 58 C-79.64617251 53.93851754 -77.77841263 53.37507549 -74.12890625 51.19921875 C-73.53254868 50.84036087 -72.9361911 50.48150299 -72.32176208 50.11177063 C-70.40683329 48.96205266 -68.48490671 47.82466101 -66.5625 46.6875 C-65.30225243 45.93374792 -64.04248127 45.17919869 -62.78320312 44.42382812 C-60.33544463 42.95718919 -57.88439969 41.49631993 -55.43017578 40.04052734 C-51.52969988 37.72023001 -47.64862508 35.36892605 -43.77319336 33.00708008 C-42 32 -42 32 -41 32 C-40.505 39.425 -40.505 39.425 -40 47 C-22.82171408 47.64418572 -2.05332958 44.43425562 11.359375 32.7109375 C14.89795436 29.02070474 16.1509519 25.6321685 16.5625 20.625 C16.33090423 15.10375696 13.90327101 11.75842306 10 8 C7.38999569 5.99200562 4.74045656 4.13725727 1.9765625 2.34765625 C0.99816406 1.68056641 0.99816406 1.68056641 0 1 C0 0.67 0 0.34 0 0 Z " fill="#273441" transform="translate(202,101)"/>
<path d="M0 0 C0.99 0.33 1.98 0.66 3 1 C2.49210937 1.35191406 1.98421875 1.70382813 1.4609375 2.06640625 C-7.68337729 8.55810134 -7.68337729 8.55810134 -12.1875 18.4375 C-12.36424851 22.76783859 -11.29203284 25.65697653 -8.76953125 29.15234375 C6.81347936 45.423346 34.605739 44.3869562 55.2890625 44.88671875 C57.1926742 44.92616245 59.09630878 44.96460159 61 45 C61.11381955 51.76594019 60.88021369 58.28837062 60 65 C3.24225796 57.13091168 3.24225796 57.13091168 -13.9375 36.6953125 C-18.31291611 30.35501045 -19.09564942 24.57093751 -18 17 C-15.07540524 8.53406779 -7.69676037 3.84838019 0 0 Z " fill="#273441" transform="translate(50,102)"/>
<path d="M0 0 C6.8108089 7.81239845 7.65732281 17.48715833 7.125 27.4375 C6.23690452 34.64343931 4.072679 39.77739944 -1.4375 44.75 C-6.27450102 48.09869301 -11.19174705 47.92514261 -16.875 47.4375 C-21.6217417 45.76735014 -24.15765442 43.65407073 -26.875 39.4375 C-29.52541902 33.44468065 -30.39498605 28.52687208 -30.3125 22 C-30.30492676 21.1632373 -30.29735352 20.32647461 -30.28955078 19.46435547 C-30.10445562 12.54828162 -29.14310121 7.2141818 -24.51953125 1.87109375 C-17.27980374 -4.94162571 -8.28533416 -4.502899 0 0 Z M-15.0625 8.125 C-18.42477117 12.41479425 -18.08622697 17.02967454 -18.125 22.3125 C-18.145625 23.00730469 -18.16625 23.70210937 -18.1875 24.41796875 C-18.22341603 29.18582112 -17.41164525 32.4033172 -14.875 36.4375 C-12.82406855 37.84216953 -12.82406855 37.84216953 -10.875 38.4375 C-7.83208335 35.59090055 -6.06019046 33.7422794 -5.71386719 29.43212891 C-5.6683828 26.9754431 -5.63975718 24.5195711 -5.625 22.0625 C-5.604375 21.21171875 -5.58375 20.3609375 -5.5625 19.484375 C-5.53237619 14.64950391 -5.68399995 11.34278716 -8.875 7.4375 C-11.77706424 5.84604542 -12.42795201 6.09263441 -15.0625 8.125 Z " fill="#0099FF" transform="translate(175.875,80.5625)"/>
<path d="M0 0 C0 2.97 0 5.94 0 9 C-0.88042969 9.15855469 -1.76085937 9.31710938 -2.66796875 9.48046875 C-11.58704626 11.12949792 -11.58704626 11.12949792 -18 17 C-17.2575 16.7525 -17.2575 16.7525 -16.5 16.5 C-10.2079653 15.24159306 -5.41707441 15.4296555 0 19 C4.54869454 23.91750762 5.36289262 27.85206134 5.27734375 34.36328125 C4.84232245 38.49904711 3.50162322 41.68745304 1 45 C-5.43661456 50.12301975 -11.02296759 50.60744643 -19 50 C-24.46989219 48.24550628 -27.86373716 44.69465431 -31 40 C-34.20156191 32.14162076 -33.67282153 24.3647265 -31.04296875 16.42578125 C-27.79582912 8.87344525 -22.74989452 4.26185453 -15.375 0.75 C-10.26793187 -0.38490403 -5.20946126 -0.15173188 0 0 Z M-20 28 C-21.10546369 29.74992715 -21.10546369 29.74992715 -21 32 C-19.16961173 37.36924585 -19.16961173 37.36924585 -15 41 C-12.44539786 41.07272562 -12.44539786 41.07272562 -10 40 C-7.34112709 36.98661071 -6.99285142 35.41461793 -7.0625 31.375 C-7.7195228 28.00027584 -7.7195228 28.00027584 -9.8125 26.0625 C-14.09054779 23.98459107 -16.76736614 24.87883627 -20 28 Z " fill="#0099FF" transform="translate(137,78)"/>
<path d="M0 0 C2.87957538 2.98168798 4.32185554 5.53794622 4.52734375 9.7109375 C3.76130338 14.9881045 1.87598245 18.0472882 -2.03515625 21.5859375 C-1.43703125 21.8540625 -0.83890625 22.1221875 -0.22265625 22.3984375 C2.72234326 23.99715152 4.59325083 25.3512142 5.58203125 28.63671875 C6.17572289 33.8450136 6.08487228 37.11389661 2.96484375 41.5859375 C-3.12457011 47.51077261 -9.68162018 47.95801814 -17.8203125 47.85546875 C-22.06996315 47.49917969 -25.19327379 46.39388219 -29.03515625 44.5859375 C-28.28515625 37.9609375 -28.28515625 37.9609375 -26.03515625 34.5859375 C-25.23078125 34.9159375 -24.42640625 35.2459375 -23.59765625 35.5859375 C-19.41712097 36.75942109 -15.34775672 37.34988387 -11.03515625 36.5859375 C-9.21375207 35.31713858 -9.21375207 35.31713858 -8.03515625 33.5859375 C-7.95490967 30.98703967 -7.95490967 30.98703967 -9.03515625 28.5859375 C-12.3744609 25.91449378 -16.92465893 25.99698723 -21.03515625 25.5859375 C-21.03515625 22.6159375 -21.03515625 19.6459375 -21.03515625 16.5859375 C-19.98714844 16.43898438 -19.98714844 16.43898438 -18.91796875 16.2890625 C-18.00789063 16.13953125 -17.0978125 15.99 -16.16015625 15.8359375 C-15.25523438 15.69671875 -14.3503125 15.5575 -13.41796875 15.4140625 C-10.90135539 14.79814343 -10.90135539 14.79814343 -9.65234375 12.6328125 C-8.76821867 10.54782636 -8.76821867 10.54782636 -10.03515625 8.5859375 C-15.89488046 7.12100645 -20.23095874 8.06791661 -26.03515625 9.5859375 C-26.69515625 6.6159375 -27.35515625 3.6459375 -28.03515625 0.5859375 C-19.47433874 -3.51612089 -8.42715344 -5.85533502 0 0 Z " fill="#0099FF" transform="translate(93.03515625,80.4140625)"/>
<path d="M0 0 C3.18407594 1.79104272 4.52721167 3.20485599 6.375 6.3125 C7.21219504 9.91243865 6.89539601 12.41841597 6 16 C4.17660948 18.70567626 2.92542564 20.53728718 0 22 C-4.78300232 22.60217655 -9.48529203 22.94928228 -13.5625 20.0625 C-16.70557154 16.11351268 -17.54727392 13.0137353 -17 8 C-13.01842253 0.17904426 -8.24864264 -1.06731638 0 0 Z M-8.8125 7.1875 C-10.26103335 8.99801207 -10.26103335 8.99801207 -9.8125 11.5625 C-9.15372967 14.14441272 -9.15372967 14.14441272 -7 16 C-4.44539786 16.07272562 -4.44539786 16.07272562 -2 15 C-0.33609251 12.75691443 -0.33609251 12.75691443 0 10 C-0.99034226 7.59616005 -0.99034226 7.59616005 -3 6 C-6.80350374 5.63464916 -6.80350374 5.63464916 -8.8125 7.1875 Z " fill="#0099FF" transform="translate(203,76)"/>
</svg>
