<?xml version="1.0" encoding="UTF-8"?>
<svg version="1.1" xmlns="http://www.w3.org/2000/svg" width="512" height="512">
<path d="M0 0 C16.51958475 14.81634597 25.51904037 34.17816125 27.29150391 56.19506836 C27.44370869 59.57152279 27.48151781 62.94043886 27.47900391 66.32006836 C27.47964844 67.22716553 27.48029297 68.1342627 27.48095703 69.06884766 C27.42015582 76.91013176 26.62060554 84.46966509 25.29150391 92.19506836 C26.02369141 92.00557617 26.75587891 91.81608398 27.51025391 91.62084961 C32.83813123 90.80520547 37.5523823 93.19024254 42.10400391 95.82006836 C49.24367179 103.57170777 50.54524133 114.84512676 50.13916016 125.00756836 C48.75041955 137.91624292 44.58810182 148.91455452 35.29150391 158.19506836 C34.092058 159.09468936 32.87733008 159.97419045 31.65039062 160.8359375 C31.02107635 161.27966202 30.39176208 161.72338654 29.74337769 162.18055725 C29.26425934 162.51534592 28.78514099 162.85013458 28.29150391 163.19506836 C29.38207596 163.19871399 30.47264801 163.20235962 31.5962677 163.20611572 C41.90903459 163.24316919 52.22150573 163.30105452 62.53404713 163.3789711 C67.83496594 163.41836264 73.1357207 163.45059188 78.43676758 163.46606445 C83.55928125 163.48128592 88.68134365 163.51582853 93.80365562 163.56337738 C95.75107574 163.57813472 97.6985603 163.58610611 99.64603615 163.58695221 C123.09353214 163.60737153 123.09353214 163.60737153 130.47297668 170.12042236 C136.43302268 176.30535971 138.74954544 182.69051751 138.69555664 191.19067383 C138.70585152 192.34095062 138.70585152 192.34095062 138.71635437 193.51446533 C138.73454313 196.03058791 138.73079588 198.54608211 138.72509766 201.06225586 C138.72966374 202.82431234 138.73497058 204.58636705 138.74098206 206.34841919 C138.74989796 210.03516896 138.74750796 213.72170195 138.73754883 217.40844727 C138.72606958 222.11473385 138.74626216 226.82026892 138.77546597 231.52645683 C138.79388337 235.16407972 138.79352437 238.80152443 138.78782845 242.43918228 C138.78767586 244.17339252 138.79366775 245.90761532 138.80611992 247.64178085 C138.92217711 266.45536838 138.92217711 266.45536838 132.43212891 274.49975586 C131.80822266 275.01795898 131.18431641 275.53616211 130.54150391 276.07006836 C129.92791016 276.60374023 129.31431641 277.13741211 128.68212891 277.68725586 C120.06442187 283.12260703 111.13115177 282.73722181 101.29150391 282.88256836 C99.73809048 282.91578865 98.18470374 282.95028258 96.63134766 282.98608398 C92.85154798 283.07045084 89.071803 283.13751165 85.29150391 283.19506836 C85.89623535 283.77877197 86.5009668 284.36247559 87.12402344 284.96386719 C91.27835839 289.03330884 95.15245038 292.86664346 98.16650391 297.88256836 C98.70017578 298.75268555 99.23384766 299.62280273 99.78369141 300.51928711 C101.38780957 303.36597349 102.85623457 306.26007149 104.29150391 309.19506836 C104.9212915 308.95272461 105.5510791 308.71038086 106.19995117 308.46069336 C109.08020457 307.36012809 111.96689195 306.27750679 114.85400391 305.19506836 C115.84464844 304.81350586 116.83529297 304.43194336 117.85595703 304.03881836 C128.05436474 300.244062 128.05436474 300.244062 133.29150391 301.19506836 C136.07333915 303.21156738 137.99967439 304.80239321 138.72633362 308.27017212 C138.87044716 310.81824798 138.85351745 313.31974092 138.77978516 315.87084961 C138.77271042 316.79600876 138.76563568 317.72116791 138.75834656 318.67436218 C138.73043206 321.61959839 138.66769948 324.56291009 138.60400391 327.50756836 C138.57891721 329.50819188 138.55610469 331.5088453 138.53564453 333.50952148 C138.48061499 338.40544152 138.39436291 343.29992904 138.29150391 348.19506836 C139.38849609 348.16026367 140.48548828 348.12545898 141.61572266 348.08959961 C143.07013436 348.06144971 144.52456271 348.03415084 145.97900391 348.00756836 C147.06084961 347.96986328 147.06084961 347.96986328 148.16455078 347.93139648 C152.75791017 347.86847375 155.64836955 348.34250328 159.29150391 351.19506836 C164.74632585 360.53769067 164.68242607 374.21669433 164.66650391 384.69506836 C164.66489258 385.81349121 164.66328125 386.93191406 164.66162109 388.08422852 C164.55569683 395.38157934 163.93928299 402.40594896 162.54150391 409.57006836 C162.38472168 410.38926758 162.22793945 411.2084668 162.06640625 412.05249023 C161.33611023 415.33777204 160.50856629 417.84451261 158.72900391 420.71850586 C154.94641642 423.00988097 151.36748713 422.62081143 147.04150391 422.44506836 C146.20103516 422.42702148 145.36056641 422.40897461 144.49462891 422.39038086 C142.42642996 422.34337634 140.3588195 422.2716356 138.29150391 422.19506836 C138.31245117 422.83532959 138.33339844 423.47559082 138.35498047 424.13525391 C138.43839675 427.05086411 138.4902436 429.96622288 138.54150391 432.88256836 C138.59177734 434.39367187 138.59177734 434.39367187 138.64306641 435.93530273 C138.74221018 443.44544326 138.74221018 443.44544326 136.40087891 447.33959961 C132.86465487 450.45016704 130.69678065 450.32152529 126.04668713 450.32649612 C125.39585355 450.32854876 124.74501998 450.33060139 124.07446417 450.33271623 C121.8724747 450.3384142 119.67054723 450.33692555 117.46855164 450.33551025 C115.88234011 450.33809229 114.29612924 450.34110499 112.70991927 450.34451365 C108.33448187 450.35260591 103.95906085 450.35437446 99.58361685 450.35511112 C94.87116975 450.35695782 90.15873123 450.3645032 85.44628906 450.37124634 C75.13441834 450.38484592 64.82255149 450.39085689 54.51067328 450.395257 C48.07590448 450.39801665 41.64113719 450.40225349 35.2063694 450.40676117 C17.4019146 450.41895591 -0.40253899 450.42925485 -18.20699787 450.43263626 C-19.34720015 450.43285583 -20.48740243 450.43307539 -21.6621563 450.43330161 C-22.80513777 450.43351989 -23.94811925 450.43373817 -25.12573653 450.43396306 C-27.44197865 450.43440653 -29.75822077 450.4348531 -32.07446289 450.43530273 C-33.79787909 450.43563488 -33.79787909 450.43563488 -35.55611178 450.43597373 C-54.17945432 450.43992301 -72.80275777 450.45738009 -91.42608521 450.48066226 C-110.53129389 450.50435471 -129.63648294 450.51683715 -148.74170655 450.51800418 C-159.47467469 450.51892212 -170.20759189 450.52470435 -180.94054604 450.54282379 C-190.0788445 450.55819638 -199.21707629 450.56336209 -208.35538522 450.55508569 C-213.02025761 450.55116909 -217.68499561 450.5521578 -222.34985161 450.56614304 C-226.61780439 450.57882166 -230.88552099 450.57773795 -235.15347316 450.56555232 C-236.69992772 450.5635848 -238.24639867 450.56672212 -239.79283015 450.57539669 C-241.89089452 450.58642323 -243.98811559 450.57904892 -246.08615589 450.56700516 C-247.25271176 450.56760225 -248.41926763 450.56819933 -249.62117368 450.56881452 C-253.06120754 450.15236969 -254.93529938 449.23462703 -257.70849609 447.19506836 C-259.77291956 444.21665493 -259.94737645 441.78325746 -259.90380859 438.21069336 C-259.89736328 437.27612305 -259.89091797 436.34155273 -259.88427734 435.37866211 C-259.86751953 434.41057617 -259.85076172 433.44249023 -259.83349609 432.44506836 C-259.82447266 431.46151367 -259.81544922 430.47795898 -259.80615234 429.46459961 C-259.78262394 427.04117429 -259.74974978 424.61824614 -259.70849609 422.19506836 C-260.96146484 422.24147461 -262.21443359 422.28788086 -263.50537109 422.33569336 C-265.1563889 422.37321649 -266.80743252 422.40961607 -268.45849609 422.44506836 C-269.28349609 422.47858398 -270.10849609 422.51209961 -270.95849609 422.54663086 C-274.61099406 422.60554212 -276.9779274 422.63762439 -280.14599609 420.71850586 C-282.36201417 417.13963667 -283.17254373 413.68045779 -283.95849609 409.57006836 C-284.12615479 408.70414062 -284.29381348 407.83821289 -284.46655273 406.94604492 C-287.4156965 389.9078803 -289.09584295 365.62510166 -279.70849609 350.19506836 C-276.01095662 347.49002333 -271.83410214 347.96956857 -267.45849609 348.07006836 C-266.71341797 348.0790918 -265.96833984 348.08811523 -265.20068359 348.09741211 C-263.36981551 348.12088478 -261.53911371 348.15675311 -259.70849609 348.19506836 C-259.72420654 347.00953369 -259.73991699 345.82399902 -259.75610352 344.60253906 C-259.81049174 340.19505636 -259.84487855 335.78760321 -259.87329102 331.37988281 C-259.88835737 329.47390755 -259.90881434 327.56796684 -259.93481445 325.66210938 C-259.97129251 322.9191026 -259.98824401 320.17655508 -260.00146484 317.43334961 C-260.0169487 316.58420486 -260.03243256 315.73506012 -260.04838562 314.86018372 C-260.04972023 310.14560638 -259.81017857 306.99992589 -256.70849609 303.19506836 C-252.96763059 300.70115802 -251.51473748 301.09083196 -247.24023438 301.67895508 C-242.86654917 302.57056265 -238.79288786 304.13291332 -234.64599609 305.75756836 C-233.78039062 306.08692383 -232.91478516 306.4162793 -232.02294922 306.75561523 C-229.91434326 307.55944844 -227.80990261 308.37263956 -225.70849609 309.19506836 C-225.35658203 308.50541992 -225.00466797 307.81577148 -224.64208984 307.10522461 C-219.78824776 297.86644947 -214.11419553 290.4863539 -206.70849609 283.19506836 C-208.1294458 283.1810498 -208.1294458 283.1810498 -209.57910156 283.16674805 C-213.13938709 283.12238041 -216.69853162 283.06061222 -220.25830078 282.98754883 C-221.79041776 282.95955761 -223.32267328 282.9382359 -224.85498047 282.92407227 C-234.92654795 282.82546031 -244.19091476 282.65781797 -252.36474609 276.04663086 C-252.97318359 275.31186523 -253.58162109 274.57709961 -254.20849609 273.82006836 C-254.83755859 273.09045898 -255.46662109 272.36084961 -256.11474609 271.60913086 C-259.50970125 266.46677231 -260.0092577 261.35459166 -260.01489258 255.32885742 C-260.02321609 254.56375854 -260.03153961 253.79865967 -260.04011536 253.01037598 C-260.06410923 250.49376252 -260.07297506 247.97740889 -260.07958984 245.46069336 C-260.08856536 243.69960457 -260.09768737 241.93851651 -260.10694885 240.1774292 C-260.12341338 236.48895419 -260.13113413 232.80056966 -260.1340332 229.11206055 C-260.13940951 224.40688007 -260.17706905 219.70256113 -260.22277737 214.99762344 C-260.25265758 211.35997484 -260.25975916 207.72253081 -260.26075935 204.0847702 C-260.26494115 202.35135713 -260.27729268 200.61794228 -260.2982769 198.88465118 C-260.41379656 188.51638249 -260.23878773 179.63364666 -253.15110779 171.38189697 C-246.53767066 165.03525811 -238.26709884 163.74701441 -229.42504883 163.76269531 C-228.54591324 163.75250366 -227.66677765 163.74231201 -226.76100159 163.73181152 C-223.88796442 163.70189092 -221.01526178 163.69244784 -218.14208984 163.68334961 C-216.13711965 163.66648738 -214.13215993 163.64833507 -212.12721252 163.62895203 C-206.87481967 163.58161366 -201.62246929 163.55169991 -196.36993408 163.5255127 C-191.00028092 163.49562538 -185.63077386 163.44912322 -180.26123047 163.40405273 C-169.74372903 163.31820362 -159.22619737 163.25077678 -148.70849609 163.19506836 C-149.26161469 162.78333374 -149.81473328 162.37159912 -150.38461304 161.9473877 C-151.10814972 161.40714966 -151.8316864 160.86691162 -152.57714844 160.31030273 C-153.29526703 159.77481812 -154.01338562 159.2393335 -154.75326538 158.68762207 C-163.50024696 152.01048687 -169.2076669 141.08441798 -170.70849609 130.19506836 C-171.36161066 118.61484474 -171.50916844 106.60176148 -163.70849609 97.19506836 C-159.68571899 93.65119329 -157.41879244 92.05634984 -152.08349609 92.13256836 C-151.26623047 92.1415918 -150.44896484 92.15061523 -149.60693359 92.15991211 C-148.98044922 92.17151367 -148.35396484 92.18311523 -147.70849609 92.19506836 C-147.98564453 91.1934668 -148.26279297 90.19186523 -148.54833984 89.15991211 C-148.91444562 87.81752427 -149.2803186 86.47507293 -149.64599609 85.13256836 C-149.82839844 84.47579102 -150.01080078 83.81901367 -150.19873047 83.14233398 C-153.97917098 69.18907173 -154.83253514 53.5889344 -148.70849609 40.19506836 C-147.86287109 39.18444336 -147.01724609 38.17381836 -146.14599609 37.13256836 C-143.55321944 34.00794008 -143.12167015 32.44814124 -142.27099609 28.57006836 C-139.11931281 14.56066301 -131.30690581 3.31961915 -119.33349609 -4.67993164 C-86.85837827 -23.79908551 -29.792863 -25.37927777 0 0 Z " fill="#020201" transform="translate(316.70849609375,39.804931640625)"/>
<path d="M0 0 C2 1 4 2 6 3 C11.72345577 3.78557236 15.99346526 2.03997656 21.2421875 0.0234375 C29.52867117 -3.0517165 38.61545899 -4.87259409 47.15625 -1.90234375 C55.33679197 1.89431867 60.90251257 6.35381833 64.40844727 14.79370117 C65.93728559 20.49576965 65.26698257 26.83951086 65.08789062 32.69335938 C65.12505953 39.6769842 66.46854927 44.23126575 70.00390625 50.1875 C75.7099776 60.21680508 75.06407123 70.77459701 74.82324219 82.02709961 C74.75004644 85.56025846 74.74120704 89.08920651 74.7421875 92.62304688 C74.59109718 116.91142991 69.31740874 134.47519715 52 152 C51.14148438 152.96679688 51.14148438 152.96679688 50.265625 153.953125 C41.12249202 164.03884901 26.17822003 173.69978155 12.41723633 174.49682617 C-5.57325943 175.04199271 -18.46761208 164.31577545 -31.3671875 152.90625 C-45.54513639 139.44547362 -53.80100523 122.43088348 -54.3184967 102.9548645 C-54.40405022 98.51563324 -54.46859272 94.07653312 -54.51489258 89.63671875 C-54.54639193 87.31319732 -54.59399679 84.98983316 -54.65844727 82.66699219 C-55.27564344 60.06117525 -55.27564344 60.06117525 -48.89157104 49.2769928 C-45.28318035 43.17538994 -44.96285342 38.01773431 -45.1875 31.0625 C-45.31551907 21.18064668 -45.0661251 12.18023779 -37.9140625 4.640625 C-26.13816946 -5.45299761 -14.14176723 -4.31246198 0 0 Z " fill="#FEC5B6" transform="translate(246,89)"/>
<path d="M0 0 C5.14179857 0.73454265 9.59010644 1.66236535 14.45117188 3.25854492 C15.86894062 3.71280327 17.28683131 4.16668115 18.70483398 4.62020874 C19.77802383 4.96610865 19.77802383 4.96610865 20.87289429 5.31899643 C24.16812705 6.37398174 27.4752743 7.38923373 30.78320312 8.40356445 C32.0964933 8.80758714 33.4097662 9.21166601 34.72302246 9.61579895 C36.07576255 10.03163425 37.42850512 10.44746151 38.78125 10.86328125 C40.21570783 11.30450883 41.65015587 11.74576824 43.08459473 12.1870575 C46.79968764 13.32987394 50.51491034 14.47226786 54.23016357 15.61456299 C58.04545051 16.78770037 61.86060994 17.96125227 65.67578125 19.13476562 C73.11706526 21.4235747 80.55848691 23.71193584 88 26 C88.01458252 27.06959961 88.02916504 28.13919922 88.04418945 29.24121094 C88.10222301 33.21485594 88.17945519 37.18793725 88.26245117 41.16113281 C88.29567681 42.87978965 88.32371616 44.59855499 88.34643555 46.31738281 C88.38002561 48.79018323 88.43234178 51.26199156 88.48828125 53.734375 C88.49467117 54.50118591 88.5010611 55.26799683 88.50764465 56.05804443 C88.62317987 60.26316184 88.87861327 63.02535538 92 66 C93.93744199 66.59086 93.93744199 66.59086 96 66.4375 C96.680625 66.43621094 97.36125 66.43492187 98.0625 66.43359375 C100.72864193 65.83693699 101.40663788 65.25535597 103 63 C103.33120542 60.1373454 103.48864092 57.48033396 103.51171875 54.61328125 C103.53864555 53.38776802 103.53864555 53.38776802 103.56611633 52.13749695 C103.62027788 49.52921706 103.65413308 46.92112075 103.6875 44.3125 C103.72066799 42.54359421 103.75515717 40.77471267 103.79101562 39.00585938 C103.87600746 34.67070527 103.94279035 30.33560616 104 26 C117.15807947 20.84157171 130.36090951 15.80697141 143.59106445 10.83642578 C145.76261911 10.01980932 147.9335046 9.20141144 150.10375977 8.38134766 C153.28262152 7.18017561 156.46333366 5.98403237 159.64453125 4.7890625 C161.09603325 4.23915146 161.09603325 4.23915146 162.57685852 3.6781311 C163.47937851 3.34042694 164.3818985 3.00272278 165.31176758 2.65478516 C166.09908768 2.35835114 166.88640778 2.06191711 167.69758606 1.75650024 C170 1 170 1 175 0 C175 9.57 175 19.14 175 29 C172.03 29.99 169.06 30.98 166 32 C158.0163139 35.9558805 152.16055673 41.89904062 148.6796875 50.1171875 C144.88110575 61.4066787 145.15693944 68.97483728 149.515625 80.01953125 C151.02870622 83.05763907 152.8614736 85.38167601 155 88 C155 88.66 155 89.32 155 90 C155.58136719 90.27972656 156.16273438 90.55945313 156.76171875 90.84765625 C158.87710447 91.93672918 160.82249501 93.13649877 162.8125 94.4375 C166.42651395 96.72931373 170.02473423 98.4264573 174 100 C174 103.96 174 107.92 174 112 C116.58 112 59.16 112 0 112 C0 75.04 0 38.08 0 0 Z " fill="#4BE065" transform="translate(264,361)"/>
<path d="M0 0 C11.15941329 3.82833519 22.22576362 7.80626724 33.23046875 12.05859375 C34.36791534 12.49628082 35.50536194 12.9339679 36.67727661 13.38491821 C41.38001228 15.19484249 46.08222452 17.00560253 50.77563477 18.83959961 C54.25543592 20.19720514 57.74210982 21.53565852 61.23046875 22.87109375 C62.2805864 23.28660995 63.33070404 23.70212616 64.41264343 24.13023376 C73.0875717 27.42141048 79.68505227 28.12579752 88.58984375 25.20703125 C89.77682861 24.82667725 90.96381348 24.44632324 92.18676758 24.05444336 C93.42450928 23.64460205 94.66225098 23.23476074 95.9375 22.8125 C98.54256011 21.97120661 101.15033962 21.13846732 103.7578125 20.3046875 C105.00981445 19.90217773 106.26181641 19.49966797 107.55175781 19.08496094 C111.77825005 17.75513005 116.02941778 16.56852819 120.3125 15.4375 C128.37187792 13.28243869 136.24322387 10.62805645 144.14477539 7.95874023 C150.31994811 5.8781323 156.50446699 3.85969841 162.75 2 C163.77685913 1.68869141 163.77685913 1.68869141 164.82446289 1.37109375 C168.07514037 0.42036512 170.56814115 0 174 0 C174 36.96 174 73.92 174 112 C144.96 112 115.92 112 86 112 C85.67 98.8 85.34 85.6 85 72 C81.51278018 67.69192146 81.51278018 67.69192146 77.4375 67.5625 C74.08130826 67.70739127 74.08130826 67.70739127 72.125 69.375 C69.42414034 73.27624173 69.77455435 77.13405296 69.68359375 81.7265625 C69.66494263 82.49121826 69.6462915 83.25587402 69.6270752 84.04370117 C69.55870285 86.90401497 69.49860181 89.76452165 69.4375 92.625 C69.293125 99.01875 69.14875 105.4125 69 112 C46.23 112 23.46 112 0 112 C0 108.04 0 104.08 0 100 C1.39412109 99.36384766 1.39412109 99.36384766 2.81640625 98.71484375 C13.56265694 93.68008008 20.67408571 88.67720842 25.8984375 77.5859375 C28.55338086 68.94324955 28.65371326 57.38061052 25.09765625 48.9453125 C18.99196187 38.12454453 11.48927208 33.30847703 0 29 C0 19.43 0 9.86 0 0 Z " fill="#BAEB69" transform="translate(74,361)"/>
<path d="M0 0 C11.49299561 9.58763126 18.4613012 20.62605027 20.09545898 35.72436523 C21.87896332 58.7010675 10.71235676 80.57079123 -3.625 97.8125 C-18.61572967 115.26439424 -18.61572967 115.26439424 -26.4453125 116.12109375 C-34.69841165 116.44302315 -39.51927469 115.44068255 -45.625 109.8125 C-63.45999195 92.8283517 -77.97635637 68.39508369 -79.79296875 43.51171875 C-79.92348274 30.06877743 -75.70088109 17.41174301 -66.92578125 7.1328125 C-49.20380629 -10.73960367 -20.96317849 -15.53360739 0 0 Z " fill="#010000" transform="translate(455.625,67.1875)"/>
<path d="M0 0 C11.17007816 3.84086531 22.26488401 7.81257198 33.30078125 12.0234375 C34.44296112 12.45875793 35.58514099 12.89407837 36.76193237 13.34259033 C41.48533552 15.14491711 46.20753681 16.95027254 50.92651367 18.76416016 C54.42384195 20.10703921 57.9245111 21.44087617 61.42578125 22.7734375 C62.48622147 23.18379242 63.54666168 23.59414734 64.63923645 24.01693726 C69.79433296 25.9720392 74.49511781 27.53242626 80 28 C79.34 28.33 78.68 28.66 78 29 C78 32.96 78 36.92 78 41 C79.65 41.66 81.3 42.32 83 43 C85 45 85 45 85.4375 48.875 C85.36758953 52.37052348 85.1832977 52.80705506 82.625 55.5 C80 57 80 57 78 57 C78.495 61.95 78.495 61.95 79 67 C77.88625 67.2475 76.7725 67.495 75.625 67.75 C72.09079457 68.60370771 72.09079457 68.60370771 70.79931641 70.52050781 C69.58387539 74.29082515 69.64040992 77.98208936 69.5859375 81.921875 C69.56829346 82.6845166 69.55064941 83.4471582 69.5324707 84.23291016 C69.46958013 87.07172876 69.42327165 89.91089519 69.375 92.75 C69.25125 99.1025 69.1275 105.455 69 112 C46.23 112 23.46 112 0 112 C0 108.04 0 104.08 0 100 C1.39412109 99.36384766 1.39412109 99.36384766 2.81640625 98.71484375 C13.56265694 93.68008008 20.67408571 88.67720842 25.8984375 77.5859375 C28.55338086 68.94324955 28.65371326 57.38061052 25.09765625 48.9453125 C18.99196187 38.12454453 11.48927208 33.30847703 0 29 C0 19.43 0 9.86 0 0 Z " fill="#4BDF65" transform="translate(74,361)"/>
<path d="M0 0 C0 9.57 0 19.14 0 29 C-2.97 29.99 -5.94 30.98 -9 32 C-16.9836861 35.9558805 -22.83944327 41.89904062 -26.3203125 50.1171875 C-30.11889425 61.4066787 -29.84306056 68.97483728 -25.484375 80.01953125 C-23.97129378 83.05763907 -22.1385264 85.38167601 -20 88 C-20 88.66 -20 89.32 -20 90 C-19.12794922 90.41958984 -19.12794922 90.41958984 -18.23828125 90.84765625 C-16.12289553 91.93672918 -14.17750499 93.13649877 -12.1875 94.4375 C-8.57348605 96.72931373 -4.97526577 98.4264573 -1 100 C-1 103.96 -1 107.92 -1 112 C-26.74 112 -52.48 112 -79 112 C-79 105.73 -79 99.46 -79 93 C-77.02 92.01 -75.04 91.02 -73 90 C-71.56079099 88.77678378 -71.56079099 88.77678378 -71.6875 85.125 C-71.69228565 81.71716002 -71.69228565 81.71716002 -73.8125 79.0625 C-76.08956772 77.89790296 -76.08956772 77.89790296 -79 77 C-79 74.03 -79 71.06 -79 68 C-78.030625 67.54625 -77.06125 67.0925 -76.0625 66.625 C-72.92920418 65.34213779 -72.92920418 65.34213779 -72 63 C-71.84308093 60.23068632 -71.74156866 57.48265893 -71.68359375 54.7109375 C-71.66281265 53.89251373 -71.64203156 53.07408997 -71.62062073 52.23086548 C-71.55515188 49.61233034 -71.49625274 46.99369361 -71.4375 44.375 C-71.39431224 42.60155193 -71.35069786 40.82811419 -71.30664062 39.0546875 C-71.19947324 34.70322954 -71.09819831 30.35166923 -71 26 C-57.81205871 20.82244181 -44.56796566 15.80252583 -31.29907227 10.83642578 C-28.01464977 9.60709 -24.7309151 8.37593019 -21.44726562 7.14453125 C-19.35160168 6.35927043 -17.25590001 5.57411029 -15.16015625 4.7890625 C-14.18216568 4.42245514 -13.20417511 4.05584778 -12.19654846 3.6781311 C-10.84254189 3.17157486 -10.84254189 3.17157486 -9.46118164 2.65478516 C-8.27353966 2.21013412 -8.27353966 2.21013412 -7.06190491 1.75650024 C-2.27441607 0 -2.27441607 0 0 0 Z " fill="#B9EA69" transform="translate(439,361)"/>
<path d="M0 0 C17.82 0 35.64 0 54 0 C54 28.05 54 56.1 54 85 C52.02 85 50.04 85 48 85 C47.4121875 83.453125 47.4121875 83.453125 46.8125 81.875 C43.97680228 75.40647295 40.52289049 71.56199147 33.9921875 68.9453125 C30.01348354 67.68833292 26.0025314 66.68632979 21.9375 65.75 C21.18186768 65.57452637 20.42623535 65.39905273 19.64770508 65.21826172 C13.79443744 63.95685295 7.73933505 62.749434 2.125 65.3125 C-0.2197245 66.99740483 -0.2197245 66.99740483 -2 70 C-8.19941562 69.40957946 -12.04504314 67.11786993 -16.25 62.5625 C-20.81787065 55.87383226 -20.40026017 49.35346697 -20.4375 41.5 C-20.47037109 40.27667969 -20.50324219 39.05335938 -20.53710938 37.79296875 C-20.59122978 28.78930171 -20.59122978 28.78930171 -17.6796875 24.90234375 C-16.35324219 23.96068359 -16.35324219 23.96068359 -15 23 C-8.76216889 15.9491482 -4.74052666 8.29592165 0 0 Z " fill="#C07C70" transform="translate(331,221)"/>
<path d="M0 0 C17.82 0 35.64 0 54 0 C56.64 4.95 59.28 9.9 62 15 C66.32034547 21.04698768 66.32034547 21.04698768 71.58081055 26.25219727 C74.71703454 30.11461385 73.50997885 36.44006029 73.5 41.1875 C73.52835937 42.39470703 73.55671875 43.60191406 73.5859375 44.84570312 C73.60203271 52.20523884 72.96338341 57.37489333 68 63 C64.94230722 65.90480814 62.07742178 67.84995796 58 69 C54.57416822 68.68856075 52.66628395 67.06421984 50 65 C42.9887477 62.6629159 36.07470328 64.57199347 29.0625 66.125 C28.11181641 66.31320312 27.16113281 66.50140625 26.18164062 66.6953125 C18.57454401 68.37296303 12.80956157 71.17197236 8.125 77.5546875 C7.75375 78.32039063 7.3825 79.08609375 7 79.875 C6.4121875 81.04675781 6.4121875 81.04675781 5.8125 82.2421875 C5.4103125 83.11230469 5.4103125 83.11230469 5 84 C3.35 84 1.7 84 0 84 C0 56.28 0 28.56 0 0 Z " fill="#C17D71" transform="translate(128,221)"/>
<path d="M0 0 C7.93486271 4.88823921 14.09313167 11.88864287 16.296875 21.05078125 C19.13677442 38.42580222 12.41431112 55.04321404 2.37109375 69.0234375 C-0.07822021 72.32516645 -2.65928375 75.50800806 -5.2734375 78.6796875 C-6.49353516 80.20142578 -6.49353516 80.20142578 -7.73828125 81.75390625 C-8.51300781 82.67816406 -9.28773438 83.60242188 -10.0859375 84.5546875 C-10.77300781 85.37710938 -11.46007812 86.19953125 -12.16796875 87.046875 C-14.2734375 88.6796875 -14.2734375 88.6796875 -16.69921875 88.77734375 C-20.14676244 87.30729856 -22.24271738 85.01814935 -24.6484375 82.2421875 C-25.13030518 81.69796143 -25.61217285 81.15373535 -26.10864258 80.59301758 C-39.43703032 65.31369852 -49.74205731 47.33799592 -49.484375 26.671875 C-48.80321165 17.00944669 -43.93644033 9.88728757 -36.9609375 3.4296875 C-26.05429787 -5.22937997 -12.57383684 -5.9988386 0 0 Z " fill="#030101" transform="translate(442.2734375,78.3203125)"/>
<path d="M0 0 C2.55078125 1.96875 2.55078125 1.96875 5.3125 4.5 C16.32383781 14.10777874 28.95356769 20.19242495 43 24 C44.32644531 24.36738281 44.32644531 24.36738281 45.6796875 24.7421875 C69.09108922 30.06627574 94.95780089 24.30895519 115.171875 11.9375 C119.22279754 9.16228235 122.98885149 6.10349088 126.72265625 2.91796875 C129 1 129 1 132 -1 C134.6875 -0.125 134.6875 -0.125 137 1 C137.7696683 8.25678685 138.13923121 15.40388791 138.09765625 22.69921875 C138.09553383 24.14081108 138.09553383 24.14081108 138.09336853 25.61152649 C138.08783675 28.63688466 138.07529773 31.66216475 138.0625 34.6875 C138.05747616 36.75716038 138.05291481 38.82682193 138.04882812 40.89648438 C138.03788981 45.931019 138.02067362 50.96549633 138 56 C132.54335485 54.96142123 127.17384008 53.88249112 121.86328125 52.23046875 C120.79916016 51.90151611 119.73503906 51.57256348 118.63867188 51.23364258 C117.54103516 50.88841553 116.44339844 50.54318848 115.3125 50.1875 C114.16201172 49.83002686 113.01152344 49.47255371 111.82617188 49.10424805 C105.85949423 47.24197493 99.9173528 45.32555393 94 43.3125 C88.57335952 41.48706258 83.12311417 39.78265279 77.625 38.1875 C76.89925781 37.96811768 76.17351562 37.74873535 75.42578125 37.52270508 C66.81527551 35.08575093 59.75935018 35.63380749 51.375 38.5625 C49.71146704 39.11617689 48.04737795 39.66818497 46.3828125 40.21875 C45.51172852 40.51007813 44.64064453 40.80140625 43.74316406 41.1015625 C38.93861184 42.67514315 34.09230212 44.11020791 29.25 45.5625 C22.70660482 47.53276376 16.20739055 49.5768917 9.75 51.8125 C3.89417637 53.80597187 -1.87628139 55.14700801 -8 56 C-8.22991094 37.32612274 -7.55355188 18.66323712 -7 0 C-4.20688002 -1.39655999 -2.96553952 -0.92432401 0 0 Z " fill="#FBDE7D" transform="translate(191,307)"/>
<path d="M0 0 C11.73919818 9.31403448 20.85876944 24.26138607 23 39.25 C23.28833188 44.25281098 23.1824097 49.24386718 23 54.25 C21.50640668 51.39383032 20.34907722 48.52728288 19.25 45.5 C14.77847125 34.34574695 6.88100058 27.13414134 -4.0625 22.3125 C-17.24896112 17.68190551 -30.06218521 20.23314728 -43 24.25 C-43.99 24.745 -43.99 24.745 -45 25.25 C-50.5466933 24.97266533 -55.22149869 23.9024048 -60.5 22.1875 C-71.80345479 18.86726274 -83.44673288 18.36209978 -94.21875 23.64453125 C-105.523465 30.17014623 -112.90433118 37.18526823 -116.41015625 50.046875 C-117.81958673 57.70073586 -118.37157744 65.49907901 -119 73.25 C-123.36426279 66.70360581 -123.36411107 59.31519455 -123.375 51.6875 C-123.39949219 50.78064453 -123.42398438 49.87378906 -123.44921875 48.93945312 C-123.47594353 42.79720899 -122.6003692 39.2589347 -119 34.25 C-118.27683594 33.56164062 -117.55367187 32.87328125 -116.80859375 32.1640625 C-114.4548913 29.67310311 -114.38760901 28.0007894 -114.0625 24.625 C-112.51557736 13.83587005 -107.62704007 5.94061093 -99 -0.75 C-72.13746074 -17.08318503 -26.56561843 -18.12626451 0 0 Z " fill="#816F8A" transform="translate(304,50.75)"/>
<path d="M0 0 C0.66644531 0.44730469 1.33289063 0.89460938 2.01953125 1.35546875 C13.92686784 9.16601541 25.06233942 14.37051114 39.4375 14.3125 C40.62956055 14.33666992 40.62956055 14.33666992 41.84570312 14.36132812 C50.55660796 14.36841592 57.64738713 11.38797716 65.3125 7.5 C66.48425781 6.9121875 67.65601563 6.324375 68.86328125 5.71875 C71.45810731 4.2969275 73.6471329 2.76599636 76 1 C76.66 1 77.32 1 78 1 C78.09796875 2.03898437 78.1959375 3.07796875 78.296875 4.1484375 C79.55145753 16.29746456 81.99406315 25.44624869 90 35 C76.63741113 48.03667206 57.79866122 54.40213447 39.375 54.5625 C20.29853948 54.25741531 2.35623789 47.76110034 -12 35 C-10.60789736 32.03595372 -8.96642353 29.47217943 -7.0625 26.8125 C-1.36105794 18.26033691 -0.45529123 10.15770435 0 0 Z " fill="#FDAE9C" transform="translate(217,264)"/>
<path d="M0 0 C7.93486271 4.88823921 14.09313167 11.88864287 16.296875 21.05078125 C19.13677442 38.42580222 12.41431112 55.04321404 2.37109375 69.0234375 C-0.07822021 72.32516645 -2.65928375 75.50800806 -5.2734375 78.6796875 C-6.49353516 80.20142578 -6.49353516 80.20142578 -7.73828125 81.75390625 C-8.51300781 82.67816406 -9.28773438 83.60242188 -10.0859375 84.5546875 C-10.77300781 85.37710938 -11.46007812 86.19953125 -12.16796875 87.046875 C-14.2734375 88.6796875 -14.2734375 88.6796875 -16.69921875 88.77734375 C-20.14676244 87.30729856 -22.24271738 85.01814935 -24.6484375 82.2421875 C-25.13030518 81.69796143 -25.61217285 81.15373535 -26.10864258 80.59301758 C-39.43703032 65.31369852 -49.74205731 47.33799592 -49.484375 26.671875 C-48.80321165 17.00944669 -43.93644033 9.88728757 -36.9609375 3.4296875 C-26.05429787 -5.22937997 -12.57383684 -5.9988386 0 0 Z M-31.2734375 7.6796875 C-32.1603125 8.2571875 -33.0471875 8.8346875 -33.9609375 9.4296875 C-39.7915752 15.1027404 -42.41759975 21.15398791 -42.6484375 29.2421875 C-42.57574428 37.06882459 -40.8366377 42.6062232 -35.6640625 48.51953125 C-28.80485044 54.95397559 -21.6310524 56.25956008 -12.3984375 56.03515625 C-5.81829162 55.28666466 -1.15184979 52.00669369 3.7265625 47.6796875 C8.70896285 40.40603146 11.05451954 33.44691408 9.7265625 24.6796875 C8.19410562 17.16527175 3.63825036 11.51892667 -2.49609375 7.06640625 C-11.69691127 1.75536524 -22.44920324 1.61434271 -31.2734375 7.6796875 Z " fill="#F94848" transform="translate(442.2734375,78.3203125)"/>
<path d="M0 0 C3.52067351 -0.08782542 7.04106144 -0.14066643 10.5625 -0.1875 C11.55314453 -0.21263672 12.54378906 -0.23777344 13.56445312 -0.26367188 C20.92129016 -0.33699583 25.42085858 0.75263213 31.6875 4.6875 C36.1147315 9.1147315 38.21980141 13.71968669 38.5 20 C38.17265214 26.88486469 35.67689614 31.73756097 30.625 36.375 C24.52307214 41.551517 17.70608156 41.25854209 10.125 41.125 C9.15046875 41.11597656 8.1759375 41.10695313 7.171875 41.09765625 C4.78099272 41.07421623 2.39062739 41.04140442 0 41 C-2.63445422 27.05150576 -2.63445422 13.94849424 0 0 Z " fill="#FDCCBD" transform="translate(49,405)"/>
<path d="M0 0 C1.53720703 0.00966797 1.53720703 0.00966797 3.10546875 0.01953125 C4.16894531 0.03628906 5.23242188 0.05304688 6.328125 0.0703125 C7.94654297 0.08384766 7.94654297 0.08384766 9.59765625 0.09765625 C12.25803778 0.12119945 14.91796836 0.15408451 17.578125 0.1953125 C20.21257922 14.14380674 20.21257922 27.24681826 17.578125 41.1953125 C14.24509497 41.3128 10.91260663 41.38298574 7.578125 41.4453125 C6.64355469 41.47882813 5.70898438 41.51234375 4.74609375 41.546875 C-2.59981063 41.64961492 -7.82946575 40.29532588 -13.4453125 35.44921875 C-13.89132812 34.89105469 -14.33734375 34.33289063 -14.796875 33.7578125 C-15.25835937 33.20222656 -15.71984375 32.64664063 -16.1953125 32.07421875 C-19.87364356 26.43957786 -20.32205539 20.75376965 -19.421875 14.1953125 C-17.03646739 8.26136464 -13.04912253 4.37420029 -7.60839844 1.10595703 C-4.93031894 -0.00941105 -2.89654789 -0.03218387 0 0 Z " fill="#FDCCBD" transform="translate(445.421875,404.8046875)"/>
<path d="M0 0 C1.85585282 0.25902708 3.70964018 0.53286594 5.5625 0.8125 C6.59503906 0.96332031 7.62757813 1.11414063 8.69140625 1.26953125 C12.4423992 2.09767255 15.51678043 3.39675266 19 5 C19.02512064 11.32730841 19.04305421 17.65458644 19.05493164 23.98193359 C19.0598943 26.1248424 19.06666659 28.26774794 19.07543945 30.41064453 C19.13082743 44.30976959 18.85721922 58.12599881 18 72 C13.71170107 71.45402375 9.6856932 70.73658827 5.5625 69.4375 C4.69753906 69.16808594 3.83257812 68.89867187 2.94140625 68.62109375 C2.30074219 68.41613281 1.66007812 68.21117187 1 68 C0.35518084 45.32843277 -0.18597076 22.68271011 0 0 Z " fill="#44AFC7" transform="translate(344,301)"/>
<path d="M0 0 C0.11955596 22.69356056 -0.03219049 45.32339955 -1 68 C-3.26949102 68.67155349 -5.5403961 69.3373963 -7.8125 70 C-9.07707031 70.37125 -10.34164062 70.7425 -11.64453125 71.125 C-15 72 -15 72 -18 72 C-18.37550466 58.66758737 -18.71273784 45.33461856 -19 32 C-19.01651611 31.24954407 -19.03303223 30.49908813 -19.05004883 29.72589111 C-19.1434722 25.37983098 -19.20688047 21.0343292 -19.25 16.6875 C-19.27126953 15.62934082 -19.29253906 14.57118164 -19.31445312 13.48095703 C-19.31896484 12.5217334 -19.32347656 11.56250977 -19.328125 10.57421875 C-19.3374707 9.75526123 -19.34681641 8.93630371 -19.35644531 8.0925293 C-18.90453384 5.43956131 -18.13585823 4.59928747 -16 3 C-13.42744965 2.31001133 -10.98692897 1.76173214 -8.375 1.3125 C-7.68148437 1.18294922 -6.98796875 1.05339844 -6.2734375 0.91992188 C-1.28931052 0 -1.28931052 0 0 0 Z " fill="#45B0C9" transform="translate(168,301)"/>
<path d="M0 0 C0 27.72 0 55.44 0 84 C-7 84 -7 84 -9.375 82.125 C-12.25736992 78.35574703 -12.13098236 75.95739243 -12.14526367 71.22705078 C-12.14862228 70.53092682 -12.1519809 69.83480286 -12.15544128 69.11758423 C-12.16496096 66.8101423 -12.16689498 64.50277286 -12.16796875 62.1953125 C-12.17118091 60.59349538 -12.17454495 58.99167856 -12.17805481 57.38986206 C-12.18404882 54.02894409 -12.18589446 50.66805185 -12.18530273 47.30712891 C-12.18520116 43.00061923 -12.19884711 38.6942746 -12.21607494 34.38780403 C-12.22719492 31.07810712 -12.22922193 27.7684501 -12.22869301 24.45873642 C-12.22987337 22.87111721 -12.23429829 21.28349699 -12.24202538 19.69589615 C-12.25182415 17.4743928 -12.24894768 15.25324741 -12.24291992 13.03173828 C-12.24434494 11.76758087 -12.24576996 10.50342346 -12.24723816 9.20095825 C-12.01105304 6.14310216 -11.73271539 4.49123648 -10 2 C-7 0 -7 0 0 0 Z " fill="#BA796D" transform="translate(85,221)"/>
<path d="M0 0 C7 0 7 0 9.89904785 2.54930115 C12.37624858 6.0192415 12.62224612 8.94269703 12.61523438 13.21118164 C12.62078339 13.90628342 12.6263324 14.60138519 12.63204956 15.31755066 C12.64379327 17.59913613 12.61963081 19.87871188 12.59375 22.16015625 C12.59203755 23.75385955 12.59210594 25.34756568 12.59387207 26.94126892 C12.59222191 30.2743541 12.5735792 33.60676417 12.54199219 36.93969727 C12.50228276 41.20581333 12.49795247 45.47104742 12.50545502 49.73731327 C12.50852831 53.02567077 12.49639203 56.31383103 12.47932434 59.60214043 C12.47230835 61.17495931 12.46916811 62.74780054 12.47001648 64.32063484 C12.46821314 66.52023661 12.44678868 68.71879265 12.41992188 70.91821289 C12.41150269 72.16808487 12.4030835 73.41795685 12.39440918 74.70570374 C11.96900621 78.25887516 11.14059328 80.16165454 9 83 C7 84 7 84 0 84 C0 56.28 0 28.56 0 0 Z " fill="#B5725A" transform="translate(427,221)"/>
<path d="M0 0 C3.3 0 6.6 0 10 0 C10 28.05 10 56.1 10 85 C6.7 85 3.4 85 0 85 C0 56.95 0 28.9 0 0 Z " fill="#FFFCF9" transform="translate(101,221)"/>
<path d="M0 0 C3.3 0 6.6 0 10 0 C10 27.72 10 55.44 10 84 C6.7 84 3.4 84 0 84 C0 56.28 0 28.56 0 0 Z " fill="#FFE7CC" transform="translate(401,221)"/>
<path d="M0 0 C2.51779824 2.51779824 2.2607402 3.36956597 2.29052734 6.85424805 C2.30328705 7.86678146 2.31604675 8.87931488 2.32919312 9.92253113 C2.33141876 11.02446304 2.33364441 12.12639496 2.3359375 13.26171875 C2.3459227 14.96869682 2.3459227 14.96869682 2.35610962 16.7101593 C2.36625931 19.1304055 2.37092593 21.55067981 2.37060547 23.97094727 C2.37492918 27.6276072 2.41108696 31.28301099 2.44921875 34.93945312 C2.56995301 59.63981998 -2.3508619 77.13949498 -20 95 C-20.85851562 95.96679688 -20.85851562 95.96679688 -21.734375 96.953125 C-29.40473326 105.41424184 -42.65096864 114.73901708 -54 117 C-56.82448928 117.12060878 -59.61343487 117.18508833 -62.4375 117.1875 C-63.18837891 117.19974609 -63.93925781 117.21199219 -64.71289062 117.22460938 C-68.93647648 117.2357534 -72.14303716 116.9399833 -76 115 C-76 114.67 -76 114.34 -76 114 C-75.20078125 113.98582031 -74.4015625 113.97164063 -73.578125 113.95703125 C-53.72958552 113.09506416 -38.68637498 101.34720825 -25 88 C-24.26007813 87.33355469 -23.52015625 86.66710937 -22.7578125 85.98046875 C-6.92782452 71.35158881 -1.43853704 50.42164952 -0.56367493 29.60658264 C-0.43863292 25.52969681 -0.36878354 21.45332938 -0.3125 17.375 C-0.27919739 15.67445519 -0.24469675 13.97393341 -0.20898438 12.2734375 C-0.12559867 8.18242335 -0.05811898 4.09144784 0 0 Z " fill="#FBB5A4" transform="translate(318,146)"/>
<path d="M0 0 C0 9.57 0 19.14 0 29 C-4.455 30.485 -4.455 30.485 -9 32 C-11.66380268 33.40953762 -11.66380268 33.40953762 -13.8125 35 C-14.52019531 35.495 -15.22789062 35.99 -15.95703125 36.5 C-17.9814339 37.9863683 -19.99082157 39.49311618 -22 41 C-22 30.44 -22 19.88 -22 9 C-22.66 8.67 -23.32 8.34 -24 8 C-20.37689672 6.66147204 -16.75121856 5.33006282 -13.125 4 C-12.09246094 3.6184375 -11.05992187 3.236875 -9.99609375 2.84375 C-9.00996094 2.4828125 -8.02382813 2.121875 -7.0078125 1.75 C-6.09660645 1.41484375 -5.18540039 1.0796875 -4.24658203 0.734375 C-2 0 -2 0 0 0 Z " fill="#64AE6F" transform="translate(439,361)"/>
<path d="M0 0 C1.05736038 13.00930892 1.11145896 25.95415744 1 39 C-2.5922998 38.36306741 -5.87918241 37.4129328 -9.30078125 36.15234375 C-10.27724609 35.79462891 -11.25371094 35.43691406 -12.25976562 35.06835938 C-13.26716797 34.69517578 -14.27457031 34.32199219 -15.3125 33.9375 C-16.33923828 33.56044922 -17.36597656 33.18339844 -18.42382812 32.79492188 C-20.95043887 31.86653932 -23.47575761 30.93479871 -26 30 C-24.12909276 18.99083299 -14.56624959 9.55232998 -6 3 C-1.29147982 0 -1.29147982 0 0 0 Z " fill="#F9DC7C" transform="translate(133,327)"/>
<path d="M0 0 C10.95636393 4.00328682 19.08878529 13.22671616 24.8203125 23.15234375 C26 26 26 26 25 29 C22.71508789 30.16674805 22.71508789 30.16674805 19.72265625 31.26171875 C18.65208984 31.65810547 17.58152344 32.05449219 16.47851562 32.46289062 C15.35123047 32.86701172 14.22394531 33.27113281 13.0625 33.6875 C11.93908203 34.10322266 10.81566406 34.51894531 9.65820312 34.94726562 C1.32208282 38 1.32208282 38 -1 38 C-1.20638953 12.23623663 -1.20638953 12.23623663 0 0 Z " fill="#F8DB7B" transform="translate(379,328)"/>
<path d="M0 0 C5.56195011 7.41593348 5.92972604 14.92548642 5 24 C1.793103 40.1357128 -6.68942773 53.49047177 -17 66 C-18.22009766 67.52173828 -18.22009766 67.52173828 -19.46484375 69.07421875 C-20.23957031 69.99847656 -21.01429688 70.92273438 -21.8125 71.875 C-22.49957031 72.69742188 -23.18664062 73.51984375 -23.89453125 74.3671875 C-26 76 -26 76 -28.63671875 75.9453125 C-31 75 -31 75 -33 72 C-32.55011719 71.59652344 -32.10023438 71.19304687 -31.63671875 70.77734375 C-21.15950193 60.88802687 -12.08934723 48.06854177 -6 35 C-6 33.68 -6 32.36 -6 31 C-5.34375 28.859375 -5.34375 28.859375 -4.5 26.75 C-4.2215625 26.04359375 -3.943125 25.3371875 -3.65625 24.609375 C-3.4396875 24.07828125 -3.223125 23.5471875 -3 23 C-2.34 23 -1.68 23 -1 23 C-0.67 15.41 -0.34 7.82 0 0 Z " fill="#E1333D" transform="translate(454,91)"/>
<path d="M0 0 C0.99 0 1.98 0 3 0 C3.00257812 0.72703125 3.00515625 1.4540625 3.0078125 2.203125 C3.35462747 11.22031413 5.50233859 19.38609684 11.96484375 26.015625 C18.95578958 31.54397372 25.31220967 32.30905183 34 32 C30.38304797 37.08633879 27.21303681 39.50633366 21 41 C17.32049532 41.33053759 13.69028036 41.28675582 10 41.1875 C9.03449219 41.17396484 8.06898437 41.16042969 7.07421875 41.14648438 C4.71554575 41.11145458 2.35808229 41.06234084 0 41 C-2.63445422 27.05150576 -2.63445422 13.94849424 0 0 Z " fill="#F8B3A1" transform="translate(49,405)"/>
<path d="M0 0 C0.99 0 1.98 0 3 0 C5.63445422 13.94849424 5.63445422 27.05150576 3 41 C-0.33303003 41.1174875 -3.66551837 41.18767324 -7 41.25 C-7.93457031 41.28351563 -8.86914062 41.31703125 -9.83203125 41.3515625 C-16.08569285 41.4390263 -20.84422393 40.71203241 -26 37 C-28 34.75 -28 34.75 -29 33 C-28.29875 32.90203125 -27.5975 32.8040625 -26.875 32.703125 C-18.73210851 31.41973449 -11.26406707 29.78585392 -6.09375 22.81640625 C-1.71640531 15.54688738 -0.31949517 8.40272291 0 0 Z " fill="#F7B2A1" transform="translate(460,405)"/>
<path d="M0 0 C0.680625 0.2475 1.36125 0.495 2.0625 0.75 C5.34731768 9.98854972 4.81027885 18.68147987 1.4765625 27.8671875 C-0.81290085 32.53465699 -3.99351273 36.36943948 -7.9375 39.75 C-8.5975 39.75 -9.2575 39.75 -9.9375 39.75 C-9.9375 27.87 -9.9375 15.99 -9.9375 3.75 C-2.9375 -0.25 -2.9375 -0.25 0 0 Z " fill="#F1ADA8" transform="translate(345.9375,148.25)"/>
<path d="M0 0 C8.06649442 0.77562446 8.06649442 0.77562446 11 4 C11.35569326 6.85529894 11.46681139 9.31917381 11.390625 12.16796875 C11.38496521 12.96278152 11.37930542 13.7575943 11.37347412 14.57649231 C11.35109004 17.11410866 11.30089262 19.6503108 11.25 22.1875 C11.2299375 23.90818273 11.21168629 25.62888759 11.1953125 27.34960938 C11.15121894 31.56695082 11.08217965 35.78323569 11 40 C9.878165 39.06781348 8.76047905 38.13063253 7.64453125 37.19140625 C7.02167236 36.67006104 6.39881348 36.14871582 5.75708008 35.61157227 C1.68607027 31.87769208 -1.62980834 26.6853267 -2.19067383 21.10180664 C-2.26867665 18.9184899 -2.27277527 16.74702844 -2.25 14.5625 C-2.25773438 13.82451172 -2.26546875 13.08652344 -2.2734375 12.32617188 C-2.25746713 7.83450437 -1.68914015 4.2295533 0 0 Z " fill="#FBB4B0" transform="translate(165,148)"/>
<path d="M0 0 C0.33 0 0.66 0 1 0 C1 17.16 1 34.32 1 52 C5.455 51.505 5.455 51.505 10 51 C10 62.22 10 73.44 10 85 C6.7 85 3.4 85 0 85 C0 56.95 0 28.9 0 0 Z " fill="#E3DED8" transform="translate(101,221)"/>
<path d="M0 0 C0 3.96 0 7.92 0 12 C-14.38278961 19.48693158 -28.12545587 21.88267318 -43.98046875 17.96875 C-47.76572177 16.75433506 -50.73609616 15.25364789 -54 13 C-51.45528349 11.72764175 -50.68690001 12.27760625 -48 13 C-44.94043331 13.239852 -41.88058283 13.23098787 -38.8125 13.25 C-37.99974609 13.270625 -37.18699219 13.29125 -36.34960938 13.3125 C-27.52329379 13.36867385 -20.45492549 10.43987322 -12.6875 6.5 C-11.51574219 5.9121875 -10.34398437 5.324375 -9.13671875 4.71875 C-0.525 0 -0.525 0 0 0 Z " fill="#F7A18D" transform="translate(295,265)"/>
<path d="M0 0 C0.99 0.495 0.99 0.495 2 1 C2 1.66 2 2.32 2 3 C2.87205078 3.41958984 2.87205078 3.41958984 3.76171875 3.84765625 C5.87710447 4.93672918 7.82249501 6.13649877 9.8125 7.4375 C13.42651395 9.72931373 17.02473423 11.4264573 21 13 C21 16.96 21 20.92 21 25 C14.07 25 7.14 25 0 25 C0 16.75 0 8.5 0 0 Z " fill="#67B271" transform="translate(417,448)"/>
<path d="M0 0 C3.5386994 1.65139305 4.81070153 2.71605229 7 6 C7.46229036 10.99273591 7.08578614 13.99990685 4 18 C0.31502204 20.45665197 -2.71971786 20.70086491 -7 20 C-9.8100346 18.20636089 -11.50940468 16.98119065 -13 14 C-13.5811138 6.91041162 -13.5811138 6.91041162 -11.125 3.0625 C-7.50882222 -0.44731961 -4.97588405 -0.33734807 0 0 Z " fill="#F9F9F9" transform="translate(429,98)"/>
<path d="M0 0 C1.9375 1.0625 1.9375 1.0625 3 3 C3.39281877 6.09344778 3.63008105 8.04575205 3 11 C0.42627616 14.02791041 -1.15246594 14.86162709 -5.0625 15.5 C-8 15 -8 15 -10.375 13.5 C-12.34683501 10.46640767 -12.64552934 8.48068984 -12.4453125 4.91015625 C-12 3 -12 3 -9.9375 0.4375 C-6.10852228 -1.43625505 -4.06665724 -1.12962701 0 0 Z " fill="#030502" transform="translate(365,439)"/>
<path d="M0 0 C1.9375 1.0625 1.9375 1.0625 3 3 C3.39281877 6.09344778 3.63008105 8.04575205 3 11 C0.42627616 14.02791041 -1.15246594 14.86162709 -5.0625 15.5 C-8 15 -8 15 -10.375 13.5 C-12.34683501 10.46640767 -12.64552934 8.48068984 -12.4453125 4.91015625 C-12 3 -12 3 -9.9375 0.4375 C-6.10852228 -1.43625505 -4.06665724 -1.12962701 0 0 Z " fill="#020502" transform="translate(156,403)"/>
<path d="M0 0 C0 3.3 0 6.6 0 10 C-2.97 10 -5.94 10 -9 10 C-9 7.03 -9 4.06 -9 1 C-1.125 0 -1.125 0 0 0 Z " fill="#FFE7CD" transform="translate(111,272)"/>
<path d="M0 0 C2.97 0 5.94 0 9 0 C9 2.97 9 5.94 9 9 C6.03 8.67 3.06 8.34 0 8 C0 5.36 0 2.72 0 0 Z " fill="#FFE7CC" transform="translate(102,221)"/>
<path d="M0 0 C2.97 0 5.94 0 9 0 C9 2.64 9 5.28 9 8 C6.03 8 3.06 8 0 8 C0 5.36 0 2.72 0 0 Z " fill="#FFD9AE" transform="translate(102,297)"/>
<path d="M0 0 C3.3 0 6.6 0 10 0 C10 1.65 10 3.3 10 5 C6.7 5 3.4 5 0 5 C0 3.35 0 1.7 0 0 Z " fill="#FFD9AE" transform="translate(401,300)"/>
<path d="M0 0 C3.63 0 7.26 0 11 0 C11 1.65 11 3.3 11 5 C4.61764706 5.49095023 4.61764706 5.49095023 1.5625 3.0625 C0 1 0 1 0 0 Z " fill="#B8735A" transform="translate(74,300)"/>
<path d="M0 0 C2.31 0 4.62 0 7 0 C6.34 1.65 5.68 3.3 5 5 C3.35 5 1.7 5 0 5 C0 3.35 0 1.7 0 0 Z " fill="#B9745B" transform="translate(128,300)"/>
<path d="M0 0 C1.98 0 3.96 0 6 0 C6 1.65 6 3.3 6 5 C4.35 5 2.7 5 1 5 C0.67 3.35 0.34 1.7 0 0 Z " fill="#BA755C" transform="translate(378,300)"/>
<path d="M0 0 C2.97 0 5.94 0 9 0 C9 0.99 9 1.98 9 3 C6.03 3 3.06 3 0 3 C0 2.01 0 1.02 0 0 Z " fill="#FFE7CC" transform="translate(102,297)"/>
</svg>
